# xmcd
#
# Track frame offsets:
# 150
# 15774
# 34062
# 52013
# 67916
# 87333
# 103995
# 126432
# 145825
# 163762
# 182730
# 200841
# 221752
#
# Disc length: 3182 seconds
#
# Revision: 0
# Processed by: cddbd v1.4PL0 Copyright (c) Steve Scherf et al.
# Submitted via: Axialis_AX_CDPlayer 2.6
#
DISCID=bf0c6c0d
DTITLE=J S - Ice Cream
DYEAR=1900
DGENRE=
TTITLE0=Love Angel
TTITLE1=Someone
TTITLE2=Ice Cream
TTITLE3=Bye Bye
TTITLE4=Slow Grind
TTITLE5=Half
TTITLE6=Ice Cream (Remix)
TTITLE7=Baby Come On
TTITLE8=Don't Turn Away
TTITLE9=Stay
TTITLE10=Handle Your Business
TTITLE11=Stay Right Here
TTITLE12=Right Here With Me
EXTD=
EXTT0=
EXTT1=
EXTT2=
EXTT3=
EXTT4=
EXTT5=
EXTT6=
EXTT7=
EXTT8=
EXTT9=
EXTT10=
EXTT11=
EXTT12=
PLAYORDER=
